<?xml version="1.0" standalone="no"?><!DOCTYPE svg PUBLIC "-//W3C//DTD SVG 1.1//EN" "http://www.w3.org/Graphics/SVG/1.1/DTD/svg11.dtd"><svg t="1742373361813" class="icon" viewBox="0 0 1718 1024" version="1.1" xmlns="http://www.w3.org/2000/svg" p-id="11004" xmlns:xlink="http://www.w3.org/1999/xlink" width="53.6875" height="32"><path d="M836.265 36.049a35.99 35.99 0 0 1-36.029 35.95H656.337a35.98 35.98 0 1 1 0-71.96h143.9a36.01 36.01 0 0 1 36.028 36.01z m195.944 0c0 19.876-11.347 35.97-25.333 35.97h-101.27c-14.007 0-25.334-16.114-25.334-35.97S891.6 0 905.605 0h101.271c14.006 0 25.333 16.114 25.333 35.99z m219.936 145.948a41.978 41.978 0 0 1-41.997 41.997H794.327a41.988 41.988 0 0 1 0-83.975h415.82a41.978 41.978 0 0 1 41.998 41.978z m111.968 149.947a40.008 40.008 0 0 1-40.008 40.008h-627.8a39.998 39.998 0 0 1 0-79.997h627.8a40.028 40.028 0 0 1 40.028 39.989z m35.99 141.968a41.998 41.998 0 0 1-41.998 41.998h-115.986a41.998 41.998 0 0 1 0-83.995h115.986a41.978 41.978 0 0 1 41.998 41.997z m-231.953 0c0 23.206-27.933 41.998-62.465 41.998H302.843c-34.473 0-62.425-18.792-62.425-41.998s27.952-41.978 62.425-41.978h802.862c34.532 0 62.465 18.793 62.465 41.998z m0 0" fill="#E4EEF2" p-id="11005"></path><path d="M484.347 559.878a43.987 43.987 0 0 1-44.007 44.007h-59.982a43.987 43.987 0 1 1 0-87.975h59.982a43.987 43.987 0 0 1 44.007 43.968z m0 0" fill="#E4EEF2" p-id="11006"></path><path d="M916.242 645.863a47.986 47.986 0 0 1-47.986 48.006h-687.82a47.986 47.986 0 0 1-41.565-23.993 47.947 47.947 0 0 1 0-47.987 47.986 47.986 0 0 1 41.564-23.993h687.802a47.986 47.986 0 0 1 47.986 47.987z m615.842 169.547a47.572 47.572 0 0 1-47.552 47.553H911.81a47.572 47.572 0 0 1 0-95.126h572.702a47.592 47.592 0 0 1 47.572 47.553z m0 0" fill="#E4EEF2" p-id="11007"></path><path d="M1052.203 897.376a34.414 34.414 0 0 1-34.433 34.375h-47.14a34.424 34.424 0 1 1 0-68.847h47.14a34.453 34.453 0 0 1 34.433 34.413z m383.929 68.71a34.296 34.296 0 0 1-34.335 34.295H762.553a34.296 34.296 0 0 1 0-68.59h639.244a34.315 34.315 0 0 1 34.335 34.295z m131.981 0a34.296 34.296 0 0 1-34.275 34.295h-27.382a34.296 34.296 0 1 1 0-68.59h27.382a34.296 34.296 0 0 1 34.275 34.295z m0 0" fill="#E4EEF2" p-id="11008"></path><path d="M1147.407 55.275H546.792s-46.193-5.772-49.109 54.86 0 696.529 0 779.224c-0.965 67.527 82.735 82.242 112.618 43.79 40.442-49.07 14.44-106.846 5.792-109.761s563.108 0 563.108 0V133.242s7.88-78.125-31.794-77.967z m0 0" fill="#FFFFFF" p-id="11009"></path><path d="M563.26 961.496c-20.703 0-40.323-7.88-53.816-21.57-12.844-13.04-19.502-30.573-19.207-50.665 0-18.498-0.138-65.006-0.335-126.84-0.67-211.585-1.97-605.461 0.335-652.64 2.187-45.82 29.017-62.13 53.384-62.13a33.724 33.724 0 0 1 4.117 0.217h599.689a31.518 31.518 0 0 1 24.288 10.696c20.093 22.2 15.13 73.28 14.912 75.387v696.922h-7.505s-254.114-1.3-420.942-1.3c-75.624 0-111.279 0.276-127.707 0.572a90.614 90.614 0 0 1 5.26 13.789 102.158 102.158 0 0 1-19.7 93.884c-11.602 14.951-30.907 23.638-52.812 23.638zM543.563 62.583c-10.874 0-36.384 4.688-38.472 47.907-2.186 46.804-0.945 440.425-0.335 651.852 0.197 61.775 0.335 108.343 0.335 126.997-0.236 16.134 4.925 29.942 14.912 40.068a60.692 60.692 0 0 0 43.2 17.118c17.275 0 32.266-6.54 41.15-17.985a86.34 86.34 0 0 0 19.935-65.735c-1.97-18.28-9.041-30.828-11.464-32.72a7.072 7.072 0 0 1-4.177-7.879c0.473-2.935 0.749-4.708 9.85-5.791 14.124-1.694 49.483-1.694 139.723-1.694 149.927 0 370.336 1.044 413.496 1.24V133.243c1.36-13.67 1.97-50.35-11.11-64.73a16.606 16.606 0 0 0-13.1-5.771H546.793c-1.044 0-1.97-0.138-3.171-0.138z m0 0" fill="#000333" p-id="11010"></path><path d="M575.434 186.705h528.34v145.16h-528.34z m0 195.017h500.092v31.282H575.434z m0 77.298h264.2v31.282h-264.2z m0 90.3h434.771v31.28h-434.77z m0 89.766h319.987v31.282H575.434z m778.83 119.926c12.981 12.962 16.645 30.652 8.194 39.516s-25.805 5.516-38.747-7.466l-124.496-124.555c-12.942-12.962-16.626-30.67-8.155-39.516s25.785-5.515 38.708 7.466z m0 0" fill="#D8EDE9" p-id="11011"></path><path d="M1349.832 807.136c-9.535 0-20.29-5.042-28.721-13.513l-124.496-124.555c-14.617-14.617-18.222-34.276-8.215-44.736 9.515-10.066 30.08-6.56 44.047 7.427l124.476 124.555c14.617 14.596 18.26 34.236 8.254 44.716a20.506 20.506 0 0 1-15.365 6.126z m-146.086-181.464a13.395 13.395 0 0 0-9.85 3.782c-6.973 7.269-3.25 22.988 8.077 34.335l124.496 124.555c7.072 7.072 15.759 11.307 23.441 11.307a13.474 13.474 0 0 0 9.77-3.822c6.955-7.288 3.212-22.988-8.115-34.295l-124.476-124.575c-7.072-7.092-15.76-11.327-23.462-11.327z m0 0" fill="#000333" p-id="11012"></path><path d="M1188.597 630.36c-9.534 2.856 3.546-5.555-1.162 6.146-1.714 10.066 2.384 18.458 9.987 26.16l118.193 120.26c12.174 12.43 36.502 25.038 42.47 17.552 0.611-0.788 1.3-1.477 1.97-2.245z m0 0" fill="#000333" p-id="11013"></path><path d="M1209.3 410.857a175.2 175.2 0 1 0 0 247.79 175.319 175.319 0 0 0 0-247.79" fill="#FFFFFF" p-id="11014"></path><path d="M1085.455 717.31a182.568 182.568 0 1 1 129.105-53.462 181.524 181.524 0 0 1-129.125 53.403z m0-350.184a167.656 167.656 0 1 0 118.606 49.03 166.592 166.592 0 0 0-118.528-49.03z m0 0" fill="#000333" p-id="11015"></path><path d="M1181.624 494.931h-21.452v-7.466h21.452z m-43.85 0h-22.358v-7.466h22.398z m-44.775 0h-22.397v-7.466h22.397z m-44.795 0h-22.377v-7.466h22.377z m-44.755 0H981.05v-7.466h22.398z m122.86-61.066h-22.397v-7.466h22.398z m-44.774 0h-22.398v-7.466h22.398z m-44.776 0h-22.417v-7.466h22.398z m165.588 140.944h-20.94v-7.485h20.94z m-43.337 0h-22.378v-7.485h22.378z m-44.776 0h-22.456v-7.485h22.456z m-44.775 0h-22.397v-7.485h22.397z m-44.795 0h-22.377v-7.485h22.377z m-44.755 0h-22.417v-7.485h22.397z m155.502 74.856h-22.418v-7.486h22.398z m-44.795 0h-22.477v-7.486h22.457z m-44.756 0h-22.437v-7.486h22.398z m0 0" fill="#999999" p-id="11016"></path><path d="M607.76 818.266s54.94 103.419-47.395 135.784c114.647-1.025 659.612 2.856 659.612 2.856s43.338-26.987 55.157-56.319-8.668-70.698-26.002-82.734c-37.861-3.684-641.47 0.433-641.47 0.433z m0 0" fill="#EEEEEE" p-id="11017"></path><path d="M1221.041 960.63h-1.083c-4.236 0-425.73-3.015-602.447-3.015-23.639 0-43.002 0-56.536 0.158h-0.197l-6.067-0.67-0.473-3.605 0.197-3.546h3.9l1.656 0.178c27.105-8.727 45.05-23.462 53.363-43.732 15.917-38.865-8.667-86.024-8.903-86.497l-2.896-5.437h6.146c2.896 0 290.655-1.97 479.113-1.97 97.43 0 152.212 0.513 162.77 1.537l0.966 0.099 0.807 0.551c19.246 13.356 39.654 56.831 27.323 87.206s-54.9 56.95-56.733 58.092z m-603.53-10.48c172.285 0 577.173 2.836 601.403 3.013 6.185-3.94 42.45-28.405 52.871-53.994 11.15-27.578-8.53-66.207-23.875-77.712-12.45-0.945-66.621-1.418-161.037-1.418-173.467 0-431.087 1.655-473.164 1.97 6.304 14.124 20.703 52.91 6.638 87.344-7.17 17.552-20.644 31.243-40.185 40.895h37.428z m0 0" fill="#000333" p-id="11018"></path><path d="M1596.066 269.499a54.743 54.743 0 0 1-55.157 54.309H1299.58a54.743 54.743 0 0 1-55.156-54.31V251.1a54.763 54.763 0 0 1 55.156-54.31h241.33a54.763 54.763 0 0 1 55.156 54.31z m0 0" fill="#FFFFFF" p-id="11019"></path><path d="M1540.91 326.605h-241.33a57.6 57.6 0 0 1-57.954-57.126V251.08a57.6 57.6 0 0 1 57.954-57.126h241.33a57.6 57.6 0 0 1 57.953 57.126v18.399a57.619 57.619 0 0 1-57.954 57.126z m-241.33-127.017a51.985 51.985 0 0 0-52.34 51.512v18.399a51.985 51.985 0 0 0 52.34 51.59h241.33a51.985 51.985 0 0 0 52.339-51.512V251.18a51.985 51.985 0 0 0-52.34-51.591z m0 0" fill="#000333" p-id="11020"></path><path d="M1348.531 380.659l21.117-59.57h78.047z m25.077-54.054l-14.597 41.23 68.493-41.23z m0 0" fill="#000333" p-id="11021"></path><path d="M1369.708 337.853l8.332-23.934 23.008-4.649 23.422 5.004 7.88 3.821 7.741 0.907-39.397 23.638-41.703 25.096z m1.516 0" fill="#FFFFFF" p-id="11022"></path><path d="M1343.922 258.369a16.823 16.823 0 1 1-16.823-16.31 16.823 16.823 0 0 1 16.823 16.31z m101.448 0a16.842 16.842 0 1 1-16.822-16.31 16.823 16.823 0 0 1 16.822 16.31z m101.449 0a16.842 16.842 0 1 1-16.803-16.31 16.823 16.823 0 0 1 16.803 16.31z m0 0" fill="#000333" p-id="11023"></path></svg>